<svg xmlns="http://www.w3.org/2000/svg" width="256" height="256"><path fill-opacity=".016" d="M0 128.004v128.004l128.25-.254 128.25-.254.254-127.75L257.008 0H0v128.004m.485.496c0 70.4.119 99.053.265 63.672.146-35.38.146-92.98 0-128C.604 29.153.485 58.1.485 128.5" fill="#1976D2" fill-rule="evenodd"/><path fill-opacity=".319" d="M80.5 60.602c-20.283 5.493-37.343 22.151-44.528 43.482C33.391 111.746 31 124.207 31 130c0 4.574 2.024 16.243 4.077 23.5 1.366 4.833 7.007 16.868 8.123 17.333.44.184.8.916.8 1.629 0 2.329 12.779 15.161 19.212 19.29 10.472 6.722 17.479 8.735 30.288 8.703 20.516-.051 31.789-6.346 51.013-28.485 1.658-1.908 8.85-10.22 15.984-18.47 15.379-17.786 17.672-20.423 19.035-21.889.568-.611 6.837-7.861 13.931-16.111 7.094-8.25 16.316-18.825 20.493-23.5 4.177-4.675 10.283-11.645 13.569-15.49 3.286-3.844 6.538-7.589 7.225-8.321.688-.733 1.25-1.75 1.25-2.26 0-.549-11.032-.929-26.949-.929h-26.949l-18.801 21.655c-17.955 20.681-45.339 52.036-53.368 61.108-7.002 7.91-16.708 10.233-25.496 6.103-4.595-2.16-7.7-5.499-11.034-11.866-2.781-5.312-2.57-19.084.38-24.699 2.874-5.471 6.589-9.111 11.638-11.404 9.233-4.194 17.24-1.485 26.639 9.013 3.503 3.913 6.695 6.996 7.093 6.852C120.656 121.219 146 91.684 146 90.476c0-.696-4.404-5.74-9.787-11.211-10.566-10.737-18.676-15.726-30.512-18.773-6.975-1.795-18.349-1.745-25.201.11m104.333 79.259c-.359.928-6.826 8.551-16.176 19.067-9.393 10.564-9.32 10.385-5.866 14.264 1.62 1.819 6.665 7.47 11.211 12.558l8.267 9.25h26.199c14.409 0 26.487-.288 26.839-.64.592-.593-2.61-5.121-6.973-9.86-2.214-2.404-26.701-30.458-34.26-39.25-4.868-5.662-8.349-7.692-9.241-5.389" fill="#1976D2" fill-rule="evenodd"/><path fill-opacity=".479" d="M79.5 61.81c-10.513 3.114-17.444 7.256-25.44 15.205-9.154 9.101-13.191 15.732-17.793 29.228-3.286 9.637-3.498 11.043-3.511 23.257-.015 13.801.922 18.862 5.638 30.443 7.801 19.16 23.56 33.768 41.614 38.572 6.921 1.842 19.91 1.882 26.667.083 6.495-1.729 14.446-5.637 20.487-10.069 3.741-2.745 18.306-18.638 36.226-39.529 6.484-7.558 28.216-32.663 29.089-33.601.562-.606 4.848-5.544 9.523-10.974 4.675-5.43 10.564-12.134 13.087-14.899 2.523-2.764 5.898-6.577 7.5-8.472a824.48 824.48 0 0 1 6.441-7.5C236.32 65.176 238.534 66 208.739 66h-26.506l-28.476 32.75a74550.206 74550.206 0 0 1-32.366 37.208C104.611 155.183 102.744 156.53 93 156.44c-5.316-.05-7.229-.547-10.5-2.729-8.579-5.725-12.023-12.703-11.948-24.211.059-8.994 1.953-13.851 7.606-19.504C81.763 106.39 88.819 103 92.717 103c6.52 0 10.748 2.33 18.49 10.186l7.707 7.82 4.385-4.753c2.413-2.614 7.71-8.578 11.773-13.253 4.063-4.675 7.959-9.095 8.658-9.821.698-.727 1.27-1.87 1.27-2.54 0-2.129-16.271-18.202-22.256-21.984-8.79-5.555-16.727-7.93-27.744-8.302-6.956-.235-11.106.155-15.5 1.457m94.887 91.905c-14.036 16.111-13.773 15.732-12.146 17.465.692.737 3.953 4.486 7.245 8.33 3.292 3.845 7.567 8.686 9.5 10.758l3.514 3.768 26.268-.268 26.267-.268-4.267-4.988a494.46 494.46 0 0 0-8.38-9.5c-2.261-2.482-10.737-12.162-18.836-21.512-8.098-9.35-15.271-17.128-15.94-17.285-.668-.157-6.62 5.918-13.225 13.5" fill="#1976D2" fill-rule="evenodd"/><path fill-opacity=".573" d="M83.5 61.634c-6.109.96-16.391 5.708-22.874 10.563-8.604 6.444-14.647 13.932-19.476 24.135-6.051 12.783-7.5 19.288-7.5 33.668 0 14.8 1.481 21.191 8.05 34.74 10.509 21.678 29.506 34.275 51.646 34.249 10.01-.012 15.249-1.262 25.211-6.016 7.763-3.705 15.888-11.416 33.02-31.336 6.558-7.625 12.823-14.888 13.923-16.14 1.1-1.252 5.375-6.246 9.5-11.098 4.125-4.851 9.525-11.106 12-13.901 2.475-2.794 6.975-7.949 10-11.454 3.025-3.506 5.962-6.862 6.527-7.459.565-.597 3.904-4.46 7.421-8.585 3.517-4.125 9.567-10.997 13.445-15.271 3.878-4.275 7.424-8.437 7.879-9.25.721-1.288-2.46-1.479-24.65-1.479-25.437 0-25.48.004-27.299 2.314-1.003 1.273-4.365 5.21-7.471 8.75A8810.968 8810.968 0 0 0 155.454 98c-35.911 41.261-45.663 52.324-47.906 54.345-4.01 3.614-8.017 5.071-14.048 5.109-10.337.066-18.395-6.224-22.556-17.608-2.458-6.723-2.468-12.941-.032-19.605C75.103 108.775 82.721 103 93.655 103c5.558 0 7.123.435 11.155 3.105 2.58 1.708 6.696 5.585 9.148 8.617l4.458 5.511 5.542-5.959c8.725-9.382 17.595-19.58 19.024-21.87 1.156-1.855.973-2.483-1.587-5.442C125.383 68.459 114.3 62.181 96.5 61.529c-5.5-.201-11.35-.154-13 .105m101.039 81.518c-4.847 5.787-13.865 16.099-18.418 21.06-3.89 4.238-4.225 4.968-3 6.527.758.965 5.581 6.594 10.717 12.508L183.176 194h50.969l-2.163-2.75c-2.016-2.565-13.93-16.237-25.482-29.244-8.21-9.245-15.897-18.081-17.578-20.207-1.55-1.96-1.629-1.935-4.383 1.353" fill="#1976D2" fill-rule="evenodd"/></svg>